# AST/ASF file generated using VICON BodyLanguage
# -----------------------------------------------
:version 1.10
:name VICON
:units
  mass 1.0
  length 0.45
  angle deg
:documentation
   .ast/.asf automatically generated from VICON data using
   VICON BodyBuilder and BodyLanguage model FoxedUp or BRILLIANT.MOD
:root
   order TX TY TZ RX RY RZ
   axis XYZ
   position 0 0 0  
   orientation 0 0 0 
:bonedata
  begin
     id 1 
     name lhipjoint
     direction 0.567149 -0.783011 0.255413 
     length 2.28399 
     axis 0 0 0  XYZ
  end
  begin
     id 2 
     name lfemur
     direction 0.34202 -0.939693 0  
     length 7.34031  
     axis 0 0 20  XYZ
    dof rx ry rz
    limits (-160.0 20.0)
           (-70.0 70.0)
           (-60.0 70.0)
  end
  begin
     id 3 
     name ltibia
     direction 0.34202 -0.939693 0   
     length 6.9833   
     axis 0 0 20   XYZ
    dof rx
    limits (-10.0 170.0)
  end
  begin
     id 4 
     name lfoot
     direction 0.136498 -0.375025 0.91691   
     length 2.33665   
     axis -90 7.62852e-016 20   XYZ
    dof rx rz
    limits (-45.0 90.0)
           (-70.0 20.0)
  end
  begin
     id 5 
     name ltoes
     direction 1.5367e-011 -4.21617e-011 1   
     length 1.15039   
     axis -90 7.62852e-016 20   XYZ
    dof rx
    limits (-90.0 20.0)
  end
  begin
     id 6 
     name rhipjoint
     direction -0.602854 -0.758518 0.247423   
     length 2.35775  
     axis 0 0 0  XYZ 
  end
  begin
     id 7 
     name rfemur
     direction -0.34202 -0.939693 0   
     length 7.43932   
     axis 0 0 -20   XYZ
    dof rx ry rz
    limits (-160.0 20.0)
           (-70.0 70.0)
           (-70.0 60.0)
  end
  begin
     id 8 
     name rtibia
     direction -0.34202 -0.939693 0   
     length 7.11893   
     axis 0 0 -20   XYZ
    dof rx
    limits (-10.0 170.0)
 end
 begin
     id 9 
     name rfoot
     direction -0.131771 -0.362037 0.922803   
     length 2.53019  
     axis -90 -7.62852e-016 -20   XYZ
    dof rx rz
    limits (-45.0 90.0)
           (-20.0 70.0)
  end
  begin
     id 10 
     name rtoes
     direction -1.53733e-011 -4.21932e-011 1   
     length 1.24596   
     axis -90 -7.62852e-016 -20   XYZ
    dof rx
    limits (-90.0 20.0)
  end
  begin
     id 11 
     name lowerback
     direction 0.0235427 0.999023 -0.0374125   
     length 2.21768   
     axis 0 0 0   XYZ
    dof rx ry rz
    limits (-20.0 45.0)
           (-30.0 30.0)
           (-30.0 30.0)
  end
  begin
     id 12 
     name upperback
     direction 0.0302156 0.996818 -0.073759   
     length 2.20352   
     axis 0 0 0   XYZ
    dof rx ry rz
    limits (-20.0 45.0)
           (-30.0 30.0)
           (-30.0 30.0)
  end
  begin
     id 13 
     name thorax
     direction 0.0187169 0.998235 -0.0563532   
     length 2.22103   
     axis 0 0 0   XYZ
    dof rx ry rz
    limits (-20.0 45.0)
           (-30.0 30.0)
           (-30.0 30.0)
  end
  begin
     id 14 
     name lowerneck
     direction -0.119528 0.987423 0.103481   
     length 1.72948   
     axis 0 0 0   XYZ
    dof rx ry rz
    limits (-20.0 45.0)
           (-30.0 30.0)
           (-30.0 30.0)
  end
  begin
     id 15 
     name upperneck
     direction 0.248049 0.963095 -0.104496   
     length 1.74979   
     axis 0 0 0   XYZ
    dof rx ry rz
    limits (-20.0 45.0)
           (-30.0 30.0)
           (-30.0 30.0)
  end
  begin
     id 16
     name head
     direction 0.0903589 0.994284 -0.056876  
     length 1.78268  
     axis 0 0 0   XYZ
    dof rx ry rz
    limits (-20.0 45.0)
           (-30.0 30.0)
           (-30.0 30.0)
  end
  begin
     id 17 
     name lclavicle
     direction 0.946008 0.242039 -0.215608  
     length 3.80783  
     axis 0 0 0   XYZ
    dof ry rz
    limits (-20.0 10.0)
           (0.0 20.0)
  end
  begin
     id 18 
     name lhumerus
     direction 1 -4.48991e-011 -2.25695e-027   
     length 4.83125   
     axis 180 -30 -90   XYZ
    dof rx ry rz
    limits (-60.0 90.0)
           (-90.0 90.0)
           (-90.0 90.0)
  end
  begin
     id 19
     name lradius
     direction 0.999991 0.00366712 -0.00211721   
     length 3.00391   
     axis 180 -30 -90   XYZ
    dof rx
    limits (-10.0 170.0)
  end
  begin
     id 20
     name lwrist
     direction 0.999991 0.00393016 -0.00141978   
     length 1.50195   
     axis -1.00488e-014 90 90   XYZ
    dof ry
    limits (-180.0 0.0)
 end
  begin
     id 21 
     name lhand
     direction 1 -4.49123e-011 2.72098e-026   
     length 1.2717   
     axis -1.73687e-014 90 90   XYZ
    dof rx rz
    limits (-90.0 90.0)
           (-45.0 45.0)
  end
  begin
     id 22 
     name lfingers
     direction 1 -4.48678e-011 5.4479e-026   
     length 1.02528   
     axis -3.47372e-014 90 90   XYZ
    dof rx
    limits (0.0 90.0)
  end
  begin
     id 23
     name lthumb
     direction 0.707107 -6.34851e-011 0.707107   
     length 1.4721   
     axis -90 45 -1.62303e-014   XYZ
    dof rx rz
    limits (-45.0 45.0)
           (-45.0 45.0)
  end
  begin
     id 24 
     name rclavicle
     direction -0.981723 0.189447 -0.0181673   
     length 3.74989  
     axis 0 0 0   XYZ 
    dof ry rz
    limits (-10.0 20.0)
           (-20.0 0.0)
  end
  begin
     id 25 
     name rhumerus
     direction -1 -4.48985e-011 2.38206e-027  
     length 4.61118   
     axis 180 30 90   XYZ
    dof rx ry rz
    limits (-90.0 60.0)
           (-90.0 90.0)
           (-90.0 90.0)
  end
  begin
     id 26 
     name rradius
     direction -1 -4.48977e-011 7.41019e-027   
     length 2.91491   
     axis 180 30 90   XYZ
    dof rx
    limits (-10.0 170.0)
  end
  begin
     id 27 
     name rwrist
     direction -1 -4.48549e-011 1.3624e-026   
     length 1.45745   
     axis -1.00488e-014 -90 -90   XYZ
    dof ry
    limits (-180.0 0.0)
  end
  begin
     id 28
     name rhand
     direction -1 -4.49107e-011 2.72109e-026   
     length 1.30769   
     axis -1.73687e-014 -90 -90   XYZ
    dof rx rz
    limits (-90.0 90.0)
           (-45.0 45.0)
  end
  begin
     id 29
     name rfingers
     direction -1 -4.48919e-011 5.44468e-026   
     length 1.05429   
     axis -3.47372e-014 -90 -90   XYZ
    dof rx
    limits (0.0 90.0)
  end
  begin
     id 30
     name rthumb
     direction -0.707107 -6.35315e-011 0.707107   
     length 1.51376   
     axis -90 -45 1.62303e-014   XYZ
    dof rx rz
    limits (-45.0 45.0)
           (-45.0 45.0)
  end
:hierarchy
  begin
    root lhipjoint rhipjoint lowerback
    lhipjoint lfemur
    lfemur ltibia
    ltibia lfoot
    lfoot ltoes
    rhipjoint rfemur
    rfemur rtibia
    rtibia rfoot
    rfoot rtoes
    lowerback upperback
    upperback thorax
    thorax lowerneck lclavicle rclavicle
    lowerneck upperneck
    upperneck head
    lclavicle lhumerus
    lhumerus lradius
    lradius lwrist
    lwrist lhand lthumb
    lhand lfingers
    rclavicle rhumerus
    rhumerus rradius
    rradius rwrist
    rwrist rhand rthumb
    rhand rfingers
  end

#!OML:ASF X:\für Bonn\!DataBase\2005_08_11_Bastian_Final\c3d\Bastian.ASF
:FULLY-SPECIFIED
:DEGREES
16
root -9.41469 16.7578 12.9798 531.822 23.0296 -175.249
lowerback 32.8922 -5.98865 3.28891
upperback 18.0347 -1.26032 5.19715
thorax 2.82589 1.45389 4.16524
lowerneck -10.2919 -12.2952 -21.5132
upperneck -12.673 -12.5615 28.9739
head 1.84253 -5.26769 12.0891
rclavicle 1.98785e-014 3.97569e-014
rhumerus -16.0783 17.9734 -84.9652
rradius 67.9509
rwrist 11.7338
rhand -19.6912 9.22752
rfingers 7.12502
rthumb 6.63795 -20.6484
lclavicle 1.98785e-014 3.97569e-014
lhumerus -17.3384 -33.2533 97.8392
lradius 66.5933
lwrist 9.52793
lhand -15.8741 -12.3873
lfingers 7.12502
lthumb 10.3216 17.3395
rfemur -7.2392 -9.2404 25.5973
rtibia 47.3452
rfoot -23.9605 2.51089
rtoes -5.42315
lfemur -32.3609 2.11334 -12.2312
ltibia 51.4937
lfoot -12.1928 -12.2187
ltoes -30.5631
17
root -9.36914 16.7544 12.9139 531.838 23.1078 -175.172
lowerback 32.7626 -5.87554 3.17939
upperback 18.0647 -1.17428 5.16367
thorax 2.90298 1.48581 4.16419
lowerneck -10.2135 -12.2888 -21.5675
upperneck -12.6889 -12.5598 29.03
head 1.83589 -5.27078 12.1238
rclavicle 3.81667e-014 -2.78299e-014
rhumerus -16.0332 18.1395 -85.0898
rradius 67.965
rwrist 11.5431
rhand -19.9848 9.2333
rfingers 7.12502
rthumb 6.35452 -20.6514
lclavicle 3.81667e-014 -2.78299e-014
lhumerus -17.4838 -33.3192 97.9155
lradius 66.6264
lwrist 9.51142
lhand -15.9024 -12.5146
lfingers 7.12502
lthumb 10.2943 17.2134
rfemur -6.8519 -9.27503 25.694
rtibia 47.1997
rfoot -24.1496 2.52036
rtoes -5.4985
lfemur -32.515 1.82311 -12.1055
ltibia 50.0832
lfoot -12.2891 -12.1085
ltoes -30.3161
18
root -9.32486 16.7509 12.847 531.841 23.1711 -175.097
lowerback 32.6465 -5.78068 3.08593
upperback 18.0878 -1.10603 5.11535
thorax 2.96823 1.51077 4.14394
lowerneck -10.157 -12.2855 -21.6116
upperneck -12.6656 -12.5675 29.0959
head 1.84657 -5.27746 12.1567
rclavicle 2.06736e-014 -3.26007e-014
rhumerus -16.0266 18.3281 -85.2408
rradius 67.986
rwrist 11.3084
rhand -20.2276 9.23272
rfingers 7.12502
rthumb 6.12007 -20.6589
lclavicle 2.06736e-014 -3.26007e-014
lhumerus -17.6207 -33.4149 97.9705
lradius 66.6416
lwrist 9.50694
lhand -15.916 -12.6151
lfingers 7.12502
lthumb 10.2812 17.1136
rfemur -6.44661 -9.31703 25.7774
rtibia 47.062
rfoot -24.3368 2.54094
rtoes -5.5179
lfemur -32.6454 1.51852 -11.9678
ltibia 48.6867
lfoot -12.3637 -11.9349
ltoes -29.4826
19
root -9.27989 16.7469 12.7782 531.856 23.2613 -175.047
lowerback 32.4851 -5.66643 2.94982
upperback 18.1201 -1.03169 5.07631
thorax 3.06097 1.53326 4.15479
lowerneck -10.1321 -12.2911 -21.7111
upperneck -12.6371 -12.5772 29.1783
head 1.87018 -5.28024 12.204
rclavicle 2.94201e-014 -3.26007e-014
rhumerus -16.0143 18.5013 -85.3763
rradius 68.0154
rwrist 11.08
rhand -20.4116 9.23084
rfingers 7.12502
rthumb 5.94247 -20.6658
lclavicle 2.94201e-014 -3.26007e-014
lhumerus -17.7391 -33.4762 98.0496
lradius 66.6561
lwrist 9.44391
lhand -15.9295 -12.741
lfingers 7.12502
lthumb 10.2682 16.9883
rfemur -6.05763 -9.30623 25.8448
rtibia 46.9323
rfoot -24.5452 2.55935
rtoes -5.43131
lfemur -32.7676 1.20094 -11.8208
ltibia 47.3151
lfoot -12.5183 -11.6807
ltoes -28.6946
20
root -9.23626 16.742 12.7091 531.894 23.3439 -174.961
lowerback 32.3012 -5.57286 2.89975
upperback 18.1587 -0.959946 5.00756
thorax 3.16747 1.56414 4.09036
lowerneck -10.1531 -12.3178 -21.7042
upperneck -12.5923 -12.6198 29.2121
head 1.90043 -5.29845 12.2057
rclavicle 1.59028e-015 3.18055e-014
rhumerus -16.0227 18.604 -85.5472
rradius 68.0793
rwrist 10.8833
rhand -20.5258 9.26032
rfingers 7.12502
rthumb 5.83223 -20.6394
lclavicle 1.59028e-015 3.18055e-014
lhumerus -17.8364 -33.6386 98.0623
lradius 66.7067
lwrist 9.45219
lhand -15.9496 -12.7622
lfingers 7.12502
lthumb 10.2488 16.9682
rfemur -5.68988 -9.28832 25.9503
rtibia 46.8101
rfoot -24.7325 2.56091
rtoes -5.35826
lfemur -32.8843 0.848182 -11.6183
ltibia 45.9756
lfoot -12.7419 -11.3812
ltoes -28.3916
21
root -9.19212 16.7358 12.6369 531.905 23.4582 -174.891
lowerback 32.1175 -5.4653 2.78938
upperback 18.2058 -0.885709 4.95319
thorax 3.2848 1.59057 4.07309
lowerneck -10.0819 -12.3246 -21.8437
upperneck -12.5911 -12.6317 29.3497
head 1.91948 -5.30508 12.2832
rclavicle 1.66979e-014 -2.46493e-014
rhumerus -16.052 18.7604 -85.7087
rradius 68.146
rwrist 10.7052
rhand -20.6517 9.26834
rfingers 7.12502
rthumb 5.7106 -20.6347
lclavicle 1.66979e-014 -2.46493e-014
lhumerus -17.9458 -33.7644 98.1049
lradius 66.7745
lwrist 9.49208
lhand -15.9561 -12.8155
lfingers 7.12502
lthumb 10.2425 16.9151
rfemur -5.28737 -9.25888 26.0271
rtibia 46.7053
rfoot -24.9477 2.59018
rtoes -5.21083
lfemur -32.9374 0.535289 -11.4136
ltibia 44.6632
lfoot -13.0264 -11.0692
ltoes -28.486
22
root -9.14915 16.7276 12.5645 531.951 23.5593 -174.783
lowerback 31.9201 -5.37227 2.73382
upperback 18.236 -0.819583 4.90197
thorax 3.38847 1.61533 4.0319
lowerneck -9.98056 -12.3149 -21.9785
upperneck -12.5865 -12.6295 29.4529
head 1.92627 -5.30804 12.3511
rclavicle 8.74653e-015 4.13472e-014
rhumerus -16.1308 18.9114 -85.8779
rradius 68.2891
rwrist 10.5429
rhand -20.6873 9.21512
rfingers 7.12502
rthumb 5.67622 -20.6889
lclavicle 8.74653e-015 4.13472e-014
lhumerus -18.0746 -33.8718 98.1677
lradius 66.8398
lwrist 9.51425
lhand -15.9359 -12.8568
lfingers 7.12502
lthumb 10.262 16.8728
rfemur -4.91844 -9.2124 26.1553
rtibia 46.6142
rfoot -25.1648 2.54621
rtoes -5.29237
lfemur -33.0029 0.184776 -11.1525
ltibia 43.3807
lfoot -13.3601 -10.7555
ltoes -28.9973
23
root -9.10577 16.7191 12.4906 531.984 23.6782 -174.704
lowerback 31.7145 -5.26733 2.62782
upperback 18.271 -0.752685 4.8605
thorax 3.50179 1.63516 4.02805
lowerneck -9.89015 -12.3274 -22.1772
upperneck -12.5931 -12.6497 29.5914
head 1.94634 -5.31911 12.4399
rclavicle -1.74931e-014 3.65764e-014
rhumerus -16.215 19.0944 -86.0262
rradius 68.4429
rwrist 10.3754
rhand -20.7028 9.20439
rfingers 7.12502
rthumb 5.6613 -20.7
lclavicle -1.74931e-014 3.65764e-014
lhumerus -18.2001 -33.9629 98.2519
lradius 66.9024
lwrist 9.54025
lhand -15.9115 -12.898
lfingers 7.12502
lthumb 10.2856 16.8305
rfemur -4.54969 -9.14266 26.2533
rtibia 46.5414
rfoot -25.3957 2.50554
rtoes -5.32011
lfemur -33.0371 -0.167092 -10.8937
ltibia 42.1281
lfoot -13.7416 -10.4509
ltoes -29.6445
24
root -9.06393 16.7102 12.4151 532.003 23.7995 -174.649
lowerback 31.4958 -5.16028 2.53763
upperback 18.3006 -0.683851 4.78439
thorax 3.61404 1.65784 3.97888
lowerneck -9.76933 -12.3188 -22.3035
upperneck -12.6151 -12.6473 29.7235
head 1.94585 -5.32361 12.5191
rclavicle -3.02153e-014 -1.98785e-014
rhumerus -16.3298 19.2429 -86.2207
rradius 68.5848
rwrist 10.2638
rhand -20.7681 9.14977
rfingers 7.12502
rthumb 5.59829 -20.7563
lclavicle -3.02153e-014 -1.98785e-014
lhumerus -18.3744 -34.133 98.2984
lradius 67.013
lwrist 9.58119
lhand -15.9146 -12.8842
lfingers 7.12502
lthumb 10.2825 16.8444
rfemur -4.17147 -9.06849 26.3139
rtibia 46.4803
rfoot -25.6378 2.48832
rtoes -5.27743
lfemur -33.0546 -0.517458 -10.6443
ltibia 40.9149
lfoot -14.087 -10.1653
ltoes -30.1711
25
root -9.0234 16.6999 12.3392 532.047 23.9744 -174.566
lowerback 31.2834 -5.04209 2.45882
upperback 18.3203 -0.599603 4.7297
thorax 3.71272 1.68625 3.94226
lowerneck -9.70424 -12.333 -22.4858
upperneck -12.5726 -12.6787 29.8373
head 1.98222 -5.33927 12.5917
rclavicle -1.00187e-013 -3.49861e-014
rhumerus -16.4171 19.371 -86.3848
rradius 68.6502
rwrist 10.1905
rhand -20.776 9.20195
rfingers 7.12502
rthumb 5.59059 -20.7043
lclavicle -1.00187e-013 -3.49861e-014
lhumerus -18.5249 -34.2404 98.3947
lradius 67.1125
lwrist 9.63418
lhand -15.8834 -12.8529
lfingers 7.12502
lthumb 10.3126 16.8743
rfemur -3.82035 -8.91622 26.418
rtibia 46.4307
rfoot -25.8714 2.46965
rtoes -5.23937
lfemur -33.0586 -0.874413 -10.3215
ltibia 39.7393
lfoot -14.4363 -9.81122
ltoes -30.8119
26
root -8.98409 16.6882 12.2615 532.098 24.1522 -174.484
lowerback 31.0712 -4.92945 2.38398
upperback 18.3272 -0.525468 4.66737
thorax 3.79813 1.70834 3.89771
lowerneck -9.64361 -12.3334 -22.6372
upperneck -12.5262 -12.6915 29.9442
head 2.01276 -5.34625 12.6594
rclavicle -4.21423e-014 1.43125e-014
rhumerus -16.522 19.5246 -86.5756
rradius 68.6599
rwrist 10.1661
rhand -20.8273 9.22968
rfingers 7.12502
rthumb 5.54109 -20.6779
lclavicle -4.21423e-014 1.43125e-014
lhumerus -18.7004 -34.3263 98.4929
lradius 67.206
lwrist 9.66709
lhand -15.8485 -12.85
lfingers 7.12502
lthumb 10.3463 16.8755
rfemur -3.47044 -8.79375 26.5029
rtibia 46.3916
rfoot -26.1076 2.46256
rtoes -5.12409
lfemur -33.0497 -1.31668 -9.94361
ltibia 38.6062
lfoot -14.6854 -9.40379
ltoes -30.9109
27
root -8.94598 16.6765 12.1831 532.132 24.3771 -174.4
lowerback 30.8873 -4.79967 2.32253
upperback 18.3374 -0.420802 4.59913
thorax 3.87514 1.74843 3.83276
lowerneck -9.62819 -12.3554 -22.7855
upperneck -12.4587 -12.7306 30.0414
head 2.06186 -5.36214 12.7157
rclavicle 3.02153e-014 3.18055e-015
rhumerus -16.5906 19.621 -86.7629
rradius 68.6056
rwrist 10.2042
rhand -20.8805 9.25245
rfingers 7.12502
rthumb 5.48976 -20.6564
lclavicle 3.02153e-014 3.18055e-015
lhumerus -18.8772 -34.4712 98.5885
lradius 67.336
lwrist 9.77996
lhand -15.7748 -12.795
lfingers 7.12502
lthumb 10.4174 16.9269
rfemur -3.10545 -8.62809 26.5921
rtibia 46.3564
rfoot -26.3702 2.43919
rtoes -5.23399
lfemur -32.9863 -1.81056 -9.5111
ltibia 37.5125
lfoot -14.8195 -8.94912
ltoes -30.4908
28
root -8.90794 16.6642 12.1034 532.182 24.6059 -174.336
lowerback 30.6622 -4.66601 2.23732
upperback 18.3456 -0.325614 4.51992
thorax 3.96719 1.77984 3.77172
lowerneck -9.63085 -12.3756 -22.9436
upperneck -12.3684 -12.7663 30.1713
head 2.12453 -5.37454 12.7857
rclavicle 6.20208e-014 1.51076e-014
rhumerus -16.6829 19.7482 -86.9576
rradius 68.5497
rwrist 10.2767
rhand -20.932 9.23375
rfingers 7.12502
rthumb 5.44001 -20.6764
lclavicle 6.20208e-014 1.51076e-014
lhumerus -19.0397 -34.5963 98.6836
lradius 67.4247
lwrist 9.8298
lhand -15.759 -12.7444
lfingers 7.12502
lthumb 10.4326 16.9768
rfemur -2.7691 -8.43595 26.6631
rtibia 46.3284
rfoot -26.6044 2.42544
rtoes -5.174
lfemur -32.9367 -2.30719 -9.08586
ltibia 36.4603
lfoot -14.8981 -8.52277
ltoes -30.0736
29
root -8.87035 16.6512 12.0222 532.207 24.8445 -174.251
lowerback 30.4751 -4.54119 2.18105
upperback 18.3419 -0.230589 4.43754
thorax 4.03168 1.81416 3.69165
lowerneck -9.61304 -12.3954 -23.0746
upperneck -12.2787 -12.8103 30.2601
head 2.17854 -5.39422 12.8345
rclavicle 4.53229e-014 -4.6118e-014
rhumerus -16.8559 19.8528 -87.1713
rradius 68.5056
rwrist 10.3843
rhand -20.9709 9.25804
rfingers 7.12502
rthumb 5.40247 -20.6531
lclavicle 4.53229e-014 -4.6118e-014
lhumerus -19.2564 -34.7351 98.7979
lradius 67.5286
lwrist 9.85569
lhand -15.7352 -12.6634
lfingers 7.12502
lthumb 10.4556 17.0566
rfemur -2.37725 -8.25613 26.7419
rtibia 46.2959
rfoot -26.8833 2.41945
rtoes -5.14048
lfemur -32.8426 -2.82251 -8.62974
ltibia 35.4562
lfoot -15.0079 -8.10848
ltoes -30.0469
30
root -8.83273 16.6376 11.9392 532.247 25.09 -174.188
lowerback 29.9743 -4.40557 2.05914
upperback 18.3242 -0.136458 4.26003
thorax 4.41979 1.83175 3.76215
lowerneck -9.6298 -12.4044 -23.2517
upperneck -12.1712 -12.829 30.3949
head 2.24608 -5.3964 12.9126
rclavicle -6.36111e-015 1.65389e-013
rhumerus -17.0084 20.0173 -87.3675
rradius 68.4535
rwrist 10.5233
rhand -20.9861 9.21697
rfingers 7.12502
rthumb 5.38775 -20.6945
lclavicle -6.36111e-015 1.65389e-013
lhumerus -19.4275 -34.859 98.8932
lradius 67.6014
lwrist 9.93136
lhand -15.7268 -12.6345
lfingers 7.12502
lthumb 10.4637 17.0851
rfemur -2.0133 -8.06042 26.798
rtibia 46.268
rfoot -27.143 2.42587
rtoes -5.10984
lfemur -32.7645 -3.2803 -8.20706
ltibia 34.4998
lfoot -15.0901 -7.67966
ltoes -30.3326
